<svg width="715" height="199" viewBox="0 0 715 199" fill="none" xmlns="http://www.w3.org/2000/svg">
<g filter="url(#filter0_i_2499_155)">
<path d="M150.5 66.5L0 94.1927V199H715V0L638 39H496.5L307.09 94.1927L150.5 66.5Z" fill="black"/>
</g>
<path d="M714 198H1V95.0244L150.504 67.5156L306.916 95.1777L307.146 95.2178L307.37 95.1523L496.642 40H638.239L638.452 39.8926L714 1.62793V198Z" stroke="#A6A27F" stroke-width="2"/>
<circle cx="497" cy="40" r="4" fill="#CAB711"/>
<circle cx="497" cy="40" r="3" fill="black"/>
<circle cx="638" cy="40" r="4" fill="#CAB711"/>
<circle cx="638" cy="40" r="3" fill="black"/>
<circle cx="307" cy="95" r="4" fill="#CAB711"/>
<circle cx="307" cy="95" r="3" fill="black"/>
<circle cx="150" cy="67" r="4" fill="#CAB711"/>
<circle cx="150" cy="67" r="3" fill="black"/>
<defs>
<filter id="filter0_i_2499_155" x="0" y="0" width="715" height="212" filterUnits="userSpaceOnUse" color-interpolation-filters="sRGB">
<feFlood flood-opacity="0" result="BackgroundImageFix"/>
<feBlend mode="normal" in="SourceGraphic" in2="BackgroundImageFix" result="shape"/>
<feColorMatrix in="SourceAlpha" type="matrix" values="0 0 0 0 0 0 0 0 0 0 0 0 0 0 0 0 0 0 127 0" result="hardAlpha"/>
<feOffset dy="13"/>
<feGaussianBlur stdDeviation="8.6"/>
<feComposite in2="hardAlpha" operator="arithmetic" k2="-1" k3="1"/>
<feColorMatrix type="matrix" values="0 0 0 0 0.983333 0 0 0 0 1 0 0 0 0 0 0 0 0 0.24 0"/>
<feBlend mode="normal" in2="shape" result="effect1_innerShadow_2499_155"/>
</filter>
</defs>
</svg>