<svg width="720" height="720" viewBox="0 0 720 720" fill="none" xmlns="http://www.w3.org/2000/svg">
<g clip-path="url(#clip0_2487_137)">
<path d="M360 720C558.823 720 720 558.823 720 360C720 161.177 558.823 0 360 0C161.177 0 0 161.177 0 360C0 558.823 161.177 720 360 720Z" fill="white"/>
<path d="M538.089 172.029L99.6219 338.022C69.6984 349.821 69.8715 366.209 94.1318 373.517L206.704 407.992L467.163 246.661C479.478 239.305 490.73 243.262 481.481 251.323L270.458 438.292H270.409L270.458 438.316L262.693 552.232C274.069 552.232 279.089 547.109 285.47 541.063L340.148 488.864L453.882 571.339C474.854 582.677 489.914 576.85 495.132 552.28L569.793 206.844C577.435 176.763 558.096 163.143 538.089 172.029Z" fill="black"/>
</g>
<defs>
<clipPath id="clip0_2487_137">
<rect width="720" height="720" fill="white"/>
</clipPath>
</defs>
</svg>
